<svg width="18" height="18" viewBox="0 0 18 18" fill="none" xmlns="http://www.w3.org/2000/svg">
<path d="M15.826 5.96317V12.0362C15.826 14.1588 14.3275 15.48 12.207 15.48H6.48496C4.36442 15.48 2.86597 14.1588 2.86597 12.0355V5.96317C2.86597 3.84054 4.36442 2.52002 6.48496 2.52002H12.207C14.3275 2.52002 15.826 3.84684 15.826 5.96317Z" stroke="#DD5313" stroke-width="1.44" stroke-linecap="round" stroke-linejoin="round"/>
<path d="M6.25073 6.92434C6.25073 6.40173 6.67456 5.97791 7.19717 5.97791H11.495C12.0176 5.97791 12.4414 6.40173 12.4414 6.92434V7.40491C12.4414 7.78112 12.2817 8.14048 12.0021 8.39269L10.2662 10.109C10.152 10.212 10.0869 10.3584 10.0869 10.5125V11.2137C10.0869 11.4358 9.951 11.6355 9.74501 11.7174L9.0816 11.9815C8.72506 12.1237 8.33834 11.8611 8.33834 11.4778V10.3409C8.33834 10.1973 8.28089 10.0593 8.1793 9.95696L6.64023 8.58673C6.39084 8.33732 6.25073 7.99964 6.25073 7.64728V6.92434Z" stroke="#DD5313" stroke-width="1.44" stroke-linecap="round" stroke-linejoin="round"/>
</svg>
